<svg width="0" height="0" class="hidden">
  <symbol xmlns="http://www.w3.org/2000/svg" viewBox="0 0 835.213 613.098" id="undraw_Investing_re_bov7">
    <path d="M789.434 613.098l.951-1.759c-12.753-6.897-28.626-15.48-36.916-29.567-8.172-13.886-8.356-32.743-.478-49.211 6.703-14.016 19.017-26.572 35.61-36.313 3.274-1.921 6.71-3.742 10.032-5.503 8.032-4.257 16.337-8.659 23.184-14.903 9.432-8.601 16.568-23.035 11.25-35.891a23.856 23.856 0 00-20.678-14.468l-.113 1.997a21.86 21.86 0 0118.948 13.248c4.943 11.948-1.839 25.505-10.754 33.636-6.66 6.074-14.852 10.415-22.773 14.614-3.342 1.77-6.798 3.602-10.108 5.545-16.939 9.944-29.526 22.798-36.403 37.175-8.16 17.06-7.946 36.636.56 51.089 8.572 14.566 24.716 23.296 37.688 30.311z" fill="#f1f1f1"></path>
    <ellipse cx="799.713" cy="427.525" rx="17.5" ry="8.5" fill="#f1f1f1"></ellipse>
    <ellipse cx="785.713" cy="483.525" rx="17.5" ry="8.5" fill="#f1f1f1"></ellipse>
    <ellipse cx="817.713" cy="492.525" rx="17.5" ry="8.5" fill="#f1f1f1"></ellipse>
    <ellipse cx="767.713" cy="539.525" rx="17.5" ry="8.5" fill="#f1f1f1"></ellipse>
    <ellipse cx="732.713" cy="539.525" rx="17.5" ry="8.5" fill="#f1f1f1"></ellipse>
    <path d="M137.286 439.484H75.191a6.35 6.35 0 01-6.342-6.342V228.544a6.35 6.35 0 016.342-6.342h62.095a6.35 6.35 0 016.343 6.342v204.598a6.35 6.35 0 01-6.343 6.342zm113.238 0h-62.095a6.35 6.35 0 01-6.342-6.342V147.355a6.35 6.35 0 016.342-6.342h62.095a6.35 6.35 0 016.342 6.342v285.787a6.35 6.35 0 01-6.342 6.342zm113.237 0h-62.094a6.35 6.35 0 01-6.343-6.342V228.544a6.35 6.35 0 016.343-6.342h62.094a6.35 6.35 0 016.343 6.342v204.598a6.35 6.35 0 01-6.343 6.342zm113.238 0h-62.095a6.21 6.21 0 01-6.342-6.055V115.02a6.21 6.21 0 016.342-6.055H477a6.21 6.21 0 016.342 6.055v318.41a6.21 6.21 0 01-6.342 6.055zm113.237 0h-62.094a6.35 6.35 0 01-6.343-6.342V57.619a6.35 6.35 0 016.343-6.342h62.094a6.35 6.35 0 016.343 6.342v375.523a6.35 6.35 0 01-6.343 6.342z" fill="#6fff63"></path>
    <circle cx="106.239" cy="183.744" r="12.819" fill="#3f3d56"></circle>
    <circle cx="219.476" cy="100.418" r="12.819" fill="#3f3d56"></circle>
    <circle cx="332.714" cy="183.744" r="12.819" fill="#3f3d56"></circle>
    <circle cx="445.951" cy="59.824" r="12.819" fill="#3f3d56"></circle>
    <circle cx="559.189" cy="12.819" r="12.819" fill="#3f3d56"></circle>
    <path d="M663 441.864H1a1 1 0 110-2h662a1 1 0 010 2zm165 171H504a1 1 0 010-2h324a1 1 0 010 2z" fill="#cbcbcb"></path>
    <path d="M619.935 425.61a7.93 7.93 0 00-1.034-12.115l3.932-17.69-10.168-5.01-5.201 25.058a7.973 7.973 0 0012.471 9.758zm111.184.388A7.93 7.93 0 00729.15 414l2.551-17.94-10.524-4.21-3.247 25.386a7.973 7.973 0 0013.189 8.763zm-79.257 176.08l-10.368-.001-4.932-39.99 15.302.001-.002 39.99z" fill="#ffb7b7"></path>
    <path d="M654.506 612.128l-33.43-.001v-.423a13.013 13.013 0 0113.012-13.012h20.419z" fill="#2f2e41"></path>
    <path fill="#ffb7b7" d="M686.535 602.078l-10.368-.001-4.932-39.99 15.302.001-.002 39.99z"></path>
    <path d="M689.18 612.128l-33.431-.001v-.423a13.013 13.013 0 0113.012-13.012h20.419zm18.23-346.498l11.18-4.034s4.745 1.007 4.745 13.876 12.602 132.882 12.602 132.882l-22.054 5.807-12.466-113.863zm-74.706 0l-11.18-4.034s-4.745 1.007-4.745 13.876-12.602 132.882-12.602 132.882l22.054 5.807 12.466-113.863zm.143 136.877l-3.056 90.152 6.766 99.724 17.432.402 2.537-93.025 14.377-46.512-1.45 137.092 19.738-.236 12.226-94.318s16.145-78.057 7.192-93.279l-41.232-13.711z" fill="#2f2e41"></path>
    <path d="M633.183 391.644l-.995 21.687s13.912 6.923 38.364 2.706 40.707-1.437 40.707-1.437l-1.878-27.646z" fill="#e5e5e5"></path>
    <path d="M621.08 261.916l32.153-14.09 1.918-7.379 31.28.906 1.351 7.539 30.808 12.704-13.573 47.197 1.392 33.202 16.926 60.512s-14.277 12.125-48.577 6.908l-5.918-11.925-3.62 12.611s-30.078 11.065-38.414-3.339l6.041-104.045z" fill="#2f2e41"></path>
    <circle cx="670.507" cy="212.744" r="20.771" fill="#ffb7b7"></circle>
    <path d="M695.186 204.695a12.65 12.65 0 00-2.099-4.69 25.34 25.34 0 00-3.782-10.913 11.45 11.45 0 00-3.39-3.912 10.004 10.004 0 00-5.331-1.329c-.339-.006-.948.097-1.496.122-.35-.109-.705-.206-1.06-.297-.207-.46-.617-1.803-.732-1.712l-1.547 1.23a30.144 30.144 0 00-1.971-.273l-.721-2.057a14.089 14.089 0 00-1.023 1.922q-.985-.049-1.972-.034l-1.315-1.263a1.855 1.855 0 01-1.45 1.42 33.27 33.27 0 00-1.809.24h-.146c-3.239-.082-6.723-.227-9.432 1.551a9.293 9.293 0 00-3.002 3.408c-.331.225-.664.449-.986.688a10.78 10.78 0 00-2.778 2.754 11.677 11.677 0 00-1.229 2.978 28.551 28.551 0 00-1.415 9.754 14.476 14.476 0 003.558 9.034c1.39 1.492 3.155 2.594 4.546 4.085 2.864 3.069 3.4 7.35 5.85 10.597 2.59 3.434 7.319 5.695 11.472 6.342a19.163 19.163 0 0014.275-3.56 8.832 8.832 0 002.43-2.548c1.442-2.493.831-5.627 1.366-8.456 1.003-5.304 6.065-9.755 5.19-15.08z" fill="#2f2e41"></path>
    <path fill="#3f3d56" d="M105.555 184.546l-1.194-1.604 115.116-85.703 112.871 84.19L446.764 57.205l.205-.084 111.04-45.829.763 1.849-110.836 45.744L332.597 184.11 219.476 99.733l-113.921 84.813z"></path>
  </symbol>
  <symbol xmlns="http://www.w3.org/2000/svg" xmlns:xlink="http://www.w3.org/1999/xlink" viewBox="0 0 1135.18 814.22" id="undraw_Outer_space_drqu">
    <defs>
      <linearGradient id="a" x1="277.46" y1="697.11" x2="277.46" y2="669.52" gradientUnits="userSpaceOnUse">
        <stop offset="0" stop-color="gray" stop-opacity=".25"></stop>
        <stop offset=".54" stop-color="gray" stop-opacity=".12"></stop>
        <stop offset="1" stop-color="gray" stop-opacity=".1"></stop>
      </linearGradient>
      <linearGradient id="c" x1="748.15" y1="567.16" x2="748.15" y2="544.13" xlink:href="#a"></linearGradient>
      <linearGradient id="d" x1="556.93" y1="707.16" x2="556.93" y2="42.89" xlink:href="#a"></linearGradient>
      <linearGradient id="b" x1="456.95" y1="628.14" x2="456.95" y2="692.54" gradientUnits="userSpaceOnUse">
        <stop offset="0" stop-color="#e0e0e0"></stop>
        <stop offset=".31" stop-color="#fccc63"></stop>
        <stop offset=".77" stop-color="#f55f44"></stop>
      </linearGradient>
      <linearGradient id="e" x1="534.05" y1="628.14" x2="534.05" y2="692.54" xlink:href="#b"></linearGradient>
      <linearGradient id="f" x1="582.35" y1="628.14" x2="582.35" y2="692.54" xlink:href="#b"></linearGradient>
      <linearGradient id="g" x1="660.3" y1="628.14" x2="660.3" y2="692.54" xlink:href="#b"></linearGradient>
      <linearGradient id="h" x1="766.05" y1="409.23" x2="766.05" y2="340.57" xlink:href="#a"></linearGradient>
      <linearGradient id="i" x1="331.05" y1="577.85" x2="331.05" y2="529.94" xlink:href="#a"></linearGradient>
    </defs>
    <title>Outer space</title>
    <path d="M991 708.36a139.92 139.92 0 01-27.7-.37c-101.12-11.18-238.82-8-351.07 61.55-155.24 96.17-398.53 13.84-505.85-30.95-82-34.21-124.57-118-99-196.65.36-1.11.73-2.22 1.12-3.33 16.09-46.74 47.85-83.32 87.18-102.71 34.28-16.9 84.33-52.19 106.6-120 9.2-28 21.82-54.34 38.21-77.3 43.89-61.49 135.77-153.06 293.79-152.49a254.66 254.66 0 0181.41 13.78c57.73 19.67 109.87 59.66 149.63 115.1 25.37 35.36 63.39 68.23 117.82 70.91 75.54 3.74 147.63 38.91 201.71 101.5 1.56 1.8 3.1 3.61 4.64 5.44 96.29 114.71 29.41 304.34-98.49 315.52z" fill="#6fff63"></path>
    <circle cx="277.46" cy="683.31" r="13.8" fill="url(#a)" opacity=".7"></circle>
    <circle cx="277.46" cy="683.31" r="13.18" opacity=".2"></circle>
    <circle cx="203.11" cy="414.14" r="5.1" fill="#fff"></circle>
    <circle cx="567.11" cy="710.14" r="5.1" fill="#fff"></circle>
    <circle cx="352.11" cy="736.14" r="2.85" fill="#fff"></circle>
    <circle cx="983.11" cy="598.14" r="2.85" fill="#fff"></circle>
    <circle cx="820.11" cy="342.14" r="2.85" fill="#fff"></circle>
    <circle cx="1051.11" cy="467.14" r="2.85" fill="#fff"></circle>
    <circle cx="293.11" cy="247.14" r="5.1" fill="#fff"></circle>
    <path fill="#fff" d="M152.94 592.21h-4.54v-4.54h-1.85v4.54h-4.54v1.85h4.54v4.53h1.85v-4.53h4.54v-1.85zm114-2h-4.54v-4.54h-1.85v4.54h-4.54v1.85h4.54v4.53h1.85v-4.53h4.54v-1.85zm163 92h-4.54v-4.54h-1.85v4.54h-4.54v1.85h4.54v4.53h1.85v-4.53h4.54v-1.85zm227.03-551.5h-2.07v-2.07h-.84v2.07h-2.07v.84h2.07v2.07h.84v-2.07h2.07v-.84zm295 190h-2.07v-2.07h-.84v2.07h-2.07v.84h2.07v2.07h.84v-2.07h2.07v-.84zm-174 124h-2.07v-2.07h-.84v2.07h-2.07v.84h2.07v2.07h.84v-2.07h2.07v-.84zm-708 78H67.9v-2.07h-.84v2.07h-2.07v.84h2.07v2.07h.84v-2.07h2.07v-.84zm85 170h-2.07v-2.07h-.84v2.07h-2.07v.84h2.07v2.07h.84v-2.07h2.07v-.84zm267-537h-2.07v-2.07h-.84v2.07h-2.07v.84h2.07v2.07h.84v-2.07h2.07v-.84zm-126 299h-2.07v-2.07h-.84v2.07h-2.07v.84h2.07v2.07h.84v-2.07h2.07v-.84zm27-86h-2.07v-2.07h-.84v2.07h-2.07v.84h2.07v2.07h.84v-2.07h2.07v-.84z"></path>
    <circle cx="748.15" cy="555.65" r="11.52" fill="url(#c)" opacity=".7"></circle>
    <circle cx="748.15" cy="555.65" r="10.67" opacity=".2"></circle>
    <circle cx="776.88" cy="630.76" r="11.93" opacity=".2"></circle>
    <path d="M702.38 349.92a154.77 154.77 0 00-17.5-72c-5.49-10.44-10.5-16.92-14.36-20.91a10.25 10.25 0 00-11.74-2.26 10.64 10.64 0 00-4.11 2.65c-5.21 5.4-9.92 12.54-14 20.13a155.43 155.43 0 00-18.37 74v15.48h-9.93V187c0-37.72-8.44-74.93-25-107.93-7.84-15.64-15-25.36-20.49-31.33a14.2 14.2 0 00-21.35 0c-7.44 8.09-14.16 18.79-20 30.16-17.39 33.72-26.22 72-26.22 110.82v178.22h-8.58v-16.23a155.39 155.39 0 00-18.37-73.95c-4.11-7.59-8.82-14.73-14-20.13a10.27 10.27 0 00-12-2.18l.36.19a10.76 10.76 0 00-3.35 2.34c-3.85 4-8.86 10.47-14.35 20.91a154.77 154.77 0 00-17.5 72v269h30.64L438.78 641v66.13h25.06V641l-3.35-22.12h30.2v-245h8.58v243.94h24.47L520.23 641v66.13h25.06V641l-3.51-23.21h33L571.25 641v66.13h25.06V641l-3.51-23.21h19.54V373.91h9.93v245.37h8.05v-.37h26.62L653.6 641v66.13h25.06V641l-3.35-22.12h27.07z" transform="translate(-32.41 -42.89)" fill="url(#d)" opacity=".7"></path>
    <path fill="#535461" d="M436.4 585.25h-23.73l4.24-28.81h15.25l4.24 28.81z"></path>
    <path d="M415.73 567.88h17.61l-1.18-8.05h-15.25l-1.18 8.05z" opacity=".1"></path>
    <path fill="#535461" d="M639.75 585.25h-23.72l4.23-28.81h15.26l4.23 28.81z"></path>
    <path d="M619.08 567.88h17.62l-1.18-8.05h-15.26l-1.18 8.05z" opacity=".1"></path>
    <path fill="#535461" d="M513.5 585.25h-23.72l4.23-28.81h15.26l4.23 28.81z"></path>
    <path d="M492.83 567.88h17.62l-1.18-8.05h-15.26l-1.18 8.05z" opacity=".1"></path>
    <path fill="#535461" d="M561.8 585.25h-23.72l4.23-28.81h15.25l4.24 28.81z"></path>
    <path d="M541.13 567.88h17.62l-1.19-8.05h-15.25l-1.18 8.05z" opacity=".1"></path>
    <path fill="#535461" d="M436.4 318.35h169.46v6.78H436.4z"></path>
    <path d="M632.05 211.27a9.55 9.55 0 00-14.16 0c-4.93 5.26-9.39 12.21-13.28 19.6a154.77 154.77 0 00-17.39 72v260.84h75V301.77a154.22 154.22 0 00-16.57-70.14c-5.21-10.16-9.95-16.52-13.6-20.36zm-215.07 0a9.55 9.55 0 0114.16 0c4.94 5.26 9.39 12.21 13.29 19.6a154.89 154.89 0 0117.39 72v260.84h-75V301.77a154.22 154.22 0 0116.57-70.14c5.2-10.16 9.94-16.52 13.59-20.36z" fill="#e0e0e0"></path>
    <path fill="#535461" d="M387.25 307.33l17.8.09v21.94h-17.8v-22.03zm56.77 0l17.8.09v21.94h-17.8v-22.03zm143.2 0l17.79.09v21.94h-17.79v-22.03zm56.77 0l17.79.09v21.94h-17.79v-22.03z"></path>
    <path d="M444.43 230.53c-3.9-7.39-8.35-14.34-13.29-19.6a9.51 9.51 0 00-11.33-2.13 10.11 10.11 0 012.86 2.13c4.93 5.26 9.39 12.21 13.28 19.6a154.75 154.75 0 0117.39 72v260.82h8.48V302.54a154.88 154.88 0 00-17.39-72.01zm166.96.72c3.89-7.39 8.35-14.34 13.28-19.6a9.92 9.92 0 013.28-2.34 9.54 9.54 0 00-10.9 2.34c-4.94 5.26-9.4 12.21-13.29 19.6a154.89 154.89 0 00-17.39 72v260.86H594V303.27a154.77 154.77 0 0117.39-72.02z" opacity=".1"></path>
    <path d="M457.27 692.54h-.65A11.54 11.54 0 01445.08 681v-52.86h23.73V681a11.54 11.54 0 01-11.54 11.54z" transform="translate(-32.41 -42.89)" fill="url(#b)"></path>
    <path d="M534.38 692.54h-.66A11.54 11.54 0 01522.19 681v-52.86h23.72V681a11.54 11.54 0 01-11.53 11.54z" transform="translate(-32.41 -42.89)" fill="url(#e)"></path>
    <path d="M582.67 692.54H582A11.54 11.54 0 01570.49 681v-52.86h23.72V681a11.54 11.54 0 01-11.54 11.54z" transform="translate(-32.41 -42.89)" fill="url(#f)"></path>
    <path d="M660.63 692.54H660A11.54 11.54 0 01648.44 681v-52.86h23.72V681a11.54 11.54 0 01-11.53 11.54z" transform="translate(-32.41 -42.89)" fill="url(#g)"></path>
    <path d="M533.93 6.75a13.2 13.2 0 00-20.21 0c-7 7.88-13.4 18.29-19 29.37-16.46 32.84-24.82 70.12-24.82 107.92v418.61h107V142.36c0-36.73-8-73-23.64-105.1-7.35-15.23-14.12-24.7-19.33-30.51z" fill="#eee"></path>
    <rect x="494.79" y="53.25" width="55.84" height="25.59" rx="11" fill="#535461"></rect>
    <path d="M470.48 158.35h105.91v4.11H470.48z" opacity=".1"></path>
    <path d="M793.45 354.22a34.62 34.62 0 00-10.22-9 34.33 34.33 0 10-17.17 64.07c.73 0 1.46 0 2.17-.08a34.32 34.32 0 0025.23-54.93z" transform="translate(-32.41 -42.89)" fill="url(#h)"></path>
    <path d="M766.09 332.01a32.45 32.45 0 01-30.4 32.38c-.67 0-1.36.07-2.05.07a32.46 32.46 0 1116.23-60.56 32.59 32.59 0 019.66 8.56 32.3 32.3 0 016.56 19.55z" opacity=".2"></path>
    <path d="M725.65 311.42a34.88 34.88 0 00-4.84 2.55 7.61 7.61 0 00-2.59 2.32 3 3 0 00-.06 3.31c.79 1.08 2.31 1.24 3.65 1.32a9.34 9.34 0 004.18-.42 9 9 0 002.44-1.77l2.79-2.53c1-.88 2-2.09 1.61-3.33a3 3 0 00-2.37-1.6 9.92 9.92 0 00-7 1.23" opacity=".1"></path>
    <circle cx="714" cy="344.82" r="1.71" opacity=".1"></circle>
    <circle cx="748.72" cy="334" r="6.26" opacity=".1"></circle>
    <path d="M759.59 312.46a8.54 8.54 0 11-9.67-8.56 32.59 32.59 0 019.67 8.56zm.58 38.23a32.37 32.37 0 01-24.48 13.7c0-.45-.06-.9-.06-1.36a15.38 15.38 0 0124.54-12.34z" opacity=".1"></path>
    <path d="M350.17 539.47a24.15 24.15 0 00-7.14-6.32 24 24 0 10-12 44.7c.51 0 1 0 1.52-.05a24 24 0 0017.6-38.33z" transform="translate(-32.41 -42.89)" fill="url(#i)"></path>
    <path d="M321.28 511.01a22.64 22.64 0 01-21.21 22.59h-1.43a22.64 22.64 0 1111.32-42.25 22.67 22.67 0 016.74 6 22.52 22.52 0 014.58 13.66z" opacity=".2"></path>
    <path d="M293.06 496.65a23.5 23.5 0 00-3.37 1.77 5.54 5.54 0 00-1.81 1.62 2.13 2.13 0 000 2.31 3.23 3.23 0 002.54.92 6.51 6.51 0 002.92-.29 6.29 6.29 0 001.71-1.24l1.94-1.76c.68-.62 1.42-1.46 1.12-2.32a2 2 0 00-1.65-1.12 6.87 6.87 0 00-4.87.86" opacity=".1"></path>
    <circle cx="284.93" cy="519.94" r="1.19" opacity=".1"></circle>
    <circle cx="309.16" cy="512.4" r="4.37" opacity=".1"></circle>
    <path d="M316.71 497.37a6 6 0 11-6.75-6 22.67 22.67 0 016.75 6zm.44 26.67a22.59 22.59 0 01-17.08 9.56v-1a10.73 10.73 0 0117.12-8.61z" opacity=".1"></path>
    <path fill="none" d="M837.69 539.42l21.8 11.6-17.02 19.04"></path>
    <circle cx="954.9" cy="428.23" r="1.84" fill="#fff"></circle>
  </symbol>
  <symbol xmlns="http://www.w3.org/2000/svg" viewBox="0 0 819.07 584" id="undraw_Security_on_re_e491">
    <path d="M747.902 525.36c7.183 12.697 1.092 55.585 1.092 55.585s-39.89-16.886-47.073-29.579a26.413 26.413 0 0145.98-26.007z" fill="#f1f1f1"></path>
    <path d="M749.572 580.89l-.847.178c-8.162-38.778-36.666-65.075-36.953-65.336l.583-.64c.289.262 28.996 26.738 37.217 65.798z" fill="#fff"></path>
    <path d="M813.173 539.818c-9.748 17.683-64.706 41.638-64.706 41.638s-9.061-59.263.681-76.94a36.556 36.556 0 1164.025 35.302z" fill="#f1f1f1"></path>
    <path d="M748.952 582.098l-.826-.87c39.77-37.768 50.065-90.444 50.164-90.972l1.178.222c-.1.531-10.458 53.577-50.516 91.62z" fill="#fff"></path>
    <path d="M192.566 405.92a75.19 75.19 0 01-18.64-2.412l-1.2-.332-1.113-.558c-40.242-20.176-74.192-46.827-100.907-79.211a299.865 299.865 0 01-50.95-90.47A348.21 348.21 0 01.067 110.272c.017-.876.031-1.552.031-2.018 0-20.29 11.262-38.092 28.692-45.354C42.128 57.342 163.244 7.595 171.995 4c16.48-8.257 34.062-1.365 36.875-.16 6.311 2.58 118.276 48.375 142.471 59.897 24.936 11.874 31.589 33.205 31.589 43.937 0 48.589-8.415 93.998-25.011 134.968a312.517 312.517 0 01-56.163 90.51c-45.846 51.595-91.705 69.885-92.148 70.046a50.11 50.11 0 01-17.042 2.721zm-10.785-26.715c3.976.892 13.13 2.229 19.096.052 7.58-2.764 45.962-22.668 81.83-63.032 49.557-55.769 74.703-125.875 74.74-208.371-.09-1.672-1.276-13.592-17.062-21.109C316.659 75.447 200.28 27.86 199.108 27.381l-.321-.137c-2.439-1.022-10.2-3.174-15.55-.37l-1.072.499c-1.297.532-129.863 53.337-143.575 59.05-9.592 3.997-13.01 13.898-13.01 21.83 0 .58-.014 1.424-.035 2.514-1.096 56.447 11.966 195.346 156.236 268.438z" fill="#3f3d56"></path>
    <path d="M177.324 15.586S47.589 68.87 33.689 74.662s-20.85 19.691-20.85 33.592S2.414 303.532 177.324 391.228c0 0 15.875 4.392 27.919 0S370.188 312.7 370.188 107.674c0 0 0-20.85-24.325-32.433S203.929 15.586 203.929 15.586s-14.443-6.37-26.605 0z" fill="#6fff63"></path>
    <path d="M191.224 57.286v284.25S60.331 278.53 61.49 112.888z" opacity=".1"></path>
    <path fill="#fff" d="M192.931 261.581l-41.696-53.612 24.248-18.859 19.743 25.384 66.695-70.406 22.303 21.131-91.293 96.362z"></path>
    <path d="M818.07 584h-381a1 1 0 010-2h381a1 1 0 010 2z" fill="#cacaca"></path>
    <path fill="#ffb8b8" d="M547.206 568.237l15.465-.001 7.358-59.653-22.826.001.003 59.653z"></path>
    <path d="M543.26 563.188l30.458-.002h.001a19.411 19.411 0 0119.41 19.41v.63l-49.868.003z" fill="#2f2e41"></path>
    <path fill="#ffb8b8" d="M599.206 568.237l15.465-.001 7.358-59.653-22.826.001.003 59.653z"></path>
    <path d="M595.26 563.188l30.458-.002h.001a19.411 19.411 0 0119.41 19.41v.63l-49.868.003zM571.514 358.75l3.71 189.25-30.011-1.861-20.82-120.542-6.576-82.189 53.697 15.342z" fill="#2f2e41"></path>
    <path d="M623.018 326.97L627.224 551l-35-1-7.56-133.17-13.15-48.217-53.696-25.204 8.766-60.272 78.9-1.096z" fill="#2f2e41"></path>
    <circle cx="562.676" cy="99.594" r="26.838" fill="#ffb8b8"></circle>
    <path fill="#ccc" d="M584.936 137.738l4.111 6.228 10.959 30.683-8.767 119.446-51.505 1.097-6.574-136.981 13.773-17.216 38.003-3.257z"></path>
    <path d="M512.338 161.499l-8.766-1.096s-2.192 1.096-3.288 8.767-14.246 75.613-14.246 75.613l17.534 83.284 19.725-26.3-12.054-46.026 12.054-46.025zm111.776-1.095h6.575l16.438 88.762-15.342 69.038L616.443 293l4.383-27.396-2.191-24.108-7.671-14.247 13.15-66.845zm-45.579-60.81l-4.88-1.22s-3.66-20.739-12.2-18.299-30.497 4.88-30.497-4.88 20.738-18.298 32.938-17.078 27.779 5.267 31.718 23.178c6.313 28.713-13.027 35.966-13.027 35.966l.322-1.046a16.282 16.282 0 00-4.374-16.621z" fill="#2f2e41"></path>
    <path d="M504.668 160.403l35.067-14.246 8.218-6.027 24.657 109.036 11.506-112.323 45.477 23.56-15.341 74.517-2.192 28.492 6.575 23.013s23.013 16.437 15.342 33.97-16.438 18.63-16.438 18.63-37.258-35.067-39.45-43.834-5.48-24.108-5.48-24.108-18.629 70.134-40.545 69.038-21.917-24.109-21.917-24.109l5.48-24.108 8.766-25.204-4.384-41.642z" fill="#2f2e41"></path>
  </symbol>
</svg>