<svg xmlns="http://www.w3.org/2000/svg" viewBox="0 0 71.03 71.14"><defs><style>.cls-1{fill:#00ff08;stroke:#111;stroke-miterlimit:10;stroke-width:2px;}</style></defs><g id="Layer_2" data-name="Layer 2"><g id="Layer_1-2" data-name="Layer 1"><path class="cls-1" d="M5.22,50a1.63,1.63,0,0,1-1.5-1A34.26,34.26,0,0,1,1,35.52a1.63,1.63,0,0,1,3.26,0h0A31,31,0,0,0,6.72,47.68a1.64,1.64,0,0,1-.87,2.14A1.69,1.69,0,0,1,5.22,50Z"/><path class="cls-1" d="M64.82,53.75a1.49,1.49,0,0,1-.69-.16,1.62,1.62,0,0,1-.79-2.16h0a31.12,31.12,0,0,0,2.72-9.35,1.63,1.63,0,0,1,3.24.4,34.6,34.6,0,0,1-3,10.34A1.63,1.63,0,0,1,64.82,53.75Z"/><path class="cls-1" d="M68.45,37.14a1.63,1.63,0,0,1-1.63-1.61h0A31.2,31.2,0,0,0,47.68,6.75a1.63,1.63,0,0,1-.86-2.14h0a1.61,1.61,0,0,1,2.1-.87h0A34.44,34.44,0,0,1,70,35.55,1.62,1.62,0,0,1,68.45,37.14Z"/><path class="cls-1" d="M4.45,26.34a1.39,1.39,0,0,1-.53-.1,1.63,1.63,0,0,1-1-2.07A34.56,34.56,0,0,1,35.53,1a1.63,1.63,0,0,1,0,3.26A31.28,31.28,0,0,0,6,25.26,1.63,1.63,0,0,1,4.45,26.34Z"/><path class="cls-1" d="M9.45,40.35a1.63,1.63,0,0,1-1.61-1.43,27.59,27.59,0,0,1-.21-3.4A28.06,28.06,0,0,1,21.45,11.36a1.63,1.63,0,0,1,1.82,2.71l-.18.1A24.8,24.8,0,0,0,10.81,35.52a25.16,25.16,0,0,0,.18,3,1.62,1.62,0,0,1-1.41,1.81h0Z"/><path class="cls-1" d="M51.68,16.39a1.65,1.65,0,0,1-1-.34,24.41,24.41,0,0,0-15.16-5.21A25.11,25.11,0,0,0,32,11.1a1.63,1.63,0,1,1-.47-3.23h0a28.11,28.11,0,0,1,4-.29,27.7,27.7,0,0,1,17.17,5.9,1.62,1.62,0,0,1,.29,2.27h0A1.62,1.62,0,0,1,51.68,16.39Z"/><path class="cls-1" d="M52.82,65.12a1.64,1.64,0,0,1-1.26-2.67C60,52.13,64.09,34.21,56.24,22.11a1.63,1.63,0,0,1,2.69-1.85.43.43,0,0,0,0,.07c4,6.19,5.55,14.3,4.33,22.83a44.5,44.5,0,0,1-9.22,21.36A1.62,1.62,0,0,1,52.82,65.12Z"/><path class="cls-1" d="M37.2,47.05a1.62,1.62,0,0,1-1.62-1.57,41.46,41.46,0,0,0-1.33-9,1.63,1.63,0,0,1,3.14-.84,44.09,44.09,0,0,1,1.44,9.76,1.63,1.63,0,0,1-1.56,1.69Z"/><path class="cls-1" d="M33.45,70a1.58,1.58,0,0,1-.61-.12,1.62,1.62,0,0,1-.91-2.1v0A56.47,56.47,0,0,0,35.84,51a1.63,1.63,0,0,1,3.25.23A59.56,59.56,0,0,1,35,69,1.63,1.63,0,0,1,33.45,70Z"/><path class="cls-1" d="M9.79,57.62a1.74,1.74,0,0,1-.45-.06,1.63,1.63,0,0,1-1.12-2,24.94,24.94,0,0,0,.73-10,1.63,1.63,0,1,1,3.24-.4,28.49,28.49,0,0,1-.84,11.25A1.61,1.61,0,0,1,9.79,57.62Z"/><path class="cls-1" d="M55.45,37.14a1.63,1.63,0,0,1-1.62-1.62,18.29,18.29,0,0,0-8-15.1,1.63,1.63,0,0,1,1.85-2.69,21.56,21.56,0,0,1,9.37,17.79A1.62,1.62,0,0,1,55.45,37.14Z"/><path class="cls-1" d="M15.59,37.14A1.63,1.63,0,0,1,14,35.53h0A21.58,21.58,0,0,1,35.52,14a14.81,14.81,0,0,1,2.21.11,1.63,1.63,0,0,1-.19,3.25H37.4c-.62-.06-1.25-.09-1.88-.09a18.32,18.32,0,0,0-18.3,18.3,1.63,1.63,0,0,1-1.62,1.62Z"/><path class="cls-1" d="M15.08,62.91a1.64,1.64,0,0,1-1.53-2.19v0a31.31,31.31,0,0,0,2-11,31.89,31.89,0,0,0-.86-7.35,1.63,1.63,0,0,1,3.1-1,1.14,1.14,0,0,1,.06.25A34.86,34.86,0,0,1,16.62,61.9,1.65,1.65,0,0,1,15.08,62.91Z"/><path class="cls-1" d="M39.85,70.14a1.66,1.66,0,0,1-1.35-.71,1.62,1.62,0,0,1,.41-2.25h0A34.82,34.82,0,0,0,53.77,42.81a1.63,1.63,0,0,1,3.23.43A38,38,0,0,1,40.77,69.85,1.59,1.59,0,0,1,39.85,70.14Z"/><path class="cls-1" d="M23.8,31a1.53,1.53,0,0,1-.76-.19,1.64,1.64,0,0,1-.69-2.2,14.85,14.85,0,0,1,20-6.29,14.69,14.69,0,0,1,3.12,2.18,1.63,1.63,0,1,1-2.08,2.51l-.11-.1a11.61,11.61,0,0,0-18.08,3.21A1.62,1.62,0,0,1,23.8,31Z"/><path class="cls-1" d="M24.38,52.88a1.63,1.63,0,0,1-1.63-1.61h0a52.14,52.14,0,0,0-1.88-13.77,1.63,1.63,0,0,1,3.1-1l0,.16a55.14,55.14,0,0,1,2,14.62,1.63,1.63,0,0,1-1.62,1.63Z"/><path class="cls-1" d="M21.29,66.75a1.63,1.63,0,0,1-1.63-1.65,1.66,1.66,0,0,1,.14-.66A29.33,29.33,0,0,0,22,57.07a1.63,1.63,0,0,1,3.22.53h0a32.58,32.58,0,0,1-2.49,8.19A1.63,1.63,0,0,1,21.29,66.75Z"/><path class="cls-1" d="M50.12,45.59H50a1.62,1.62,0,0,1-1.53-1.72A28.22,28.22,0,0,0,47,32.67a1.63,1.63,0,0,1,3-1.26l.06.18a31.33,31.33,0,0,1,1.71,12.48A1.63,1.63,0,0,1,50.12,45.59Z"/><path class="cls-1" d="M27,68.92a1.55,1.55,0,0,1-.67-.14,1.63,1.63,0,0,1-.82-2.15,43.19,43.19,0,0,0,1.94-5.31,1.63,1.63,0,0,1,3.13.9A43.17,43.17,0,0,1,28.51,68,1.62,1.62,0,0,1,27,68.92Z"/><path class="cls-1" d="M30.11,58.31h-.24a1.64,1.64,0,0,1-1.37-1.86,37.31,37.31,0,0,0,.33-7.76c-.08-1.23-.22-2.48-.42-3.7a1.63,1.63,0,0,1,3.18-.73l0,.2a38.25,38.25,0,0,1,.46,4,39.83,39.83,0,0,1-.36,8.45A1.63,1.63,0,0,1,30.11,58.31Z"/><path class="cls-1" d="M44.45,47.66A1.63,1.63,0,0,1,42.82,46h0c0-5.46-1.51-15.79-7.26-15.79a5.3,5.3,0,0,0-5.28,5.28v.29a1.63,1.63,0,1,1-3.24.36A1.09,1.09,0,0,1,27,36v-.47A8.56,8.56,0,0,1,35.57,27C43.34,27,46.09,37.24,46.09,46a1.63,1.63,0,0,1-1.63,1.63Z"/><path class="cls-1" d="M41.31,62.33a1.71,1.71,0,0,1-.67-.14A1.63,1.63,0,0,1,39.82,60a34.6,34.6,0,0,0,2.56-8.69,1.63,1.63,0,0,1,3.22.5,37.16,37.16,0,0,1-2.81,9.51A1.62,1.62,0,0,1,41.31,62.33Z"/></g></g></svg>