<svg width="0" height="0" class="hidden">
  <symbol xmlns="http://www.w3.org/2000/svg" viewBox="0 0 940.675 433.962" id="undraw_Vault_re_s4my">
    <path d="M199.49 409.814c-22.522-14.678-38.899-41.062-35.547-67.736a123.863 123.863 0 0076.435 37.278c11.219 1.123 23.813 1.203 31.78 9.181 4.958 4.964 7.064 12.22 7.173 19.234.108 7.015-1.578 13.919-3.252 20.732l.411 1.702c-26.865-.993-54.476-5.713-77-20.391z" fill="#f0f0f0"></path>
    <path d="M164.507 342.073a105.87 105.87 0 0042.013 49.777 45.591 45.591 0 0013.058 5.792 26.149 26.149 0 0013.752-.528c4.18-1.222 8.313-2.957 12.717-3.142a16.01 16.01 0 0112.09 5.027c3.962 3.993 6.253 9.171 8.317 14.313 2.292 5.708 4.582 11.674 9.25 15.903.565.512-.263 1.36-.828.848-8.12-7.357-9.014-19.16-15.398-27.694-2.978-3.982-7.175-7.09-12.306-7.222-4.486-.115-8.75 1.67-12.972 2.944a27.903 27.903 0 01-13.427 1.017 42.148 42.148 0 01-13.232-5.269 102.713 102.713 0 01-24.765-20.426 107.747 107.747 0 01-19.411-31.025c-.288-.704.856-1.015 1.142-.315z" fill="#fff"></path>
    <path d="M200.216 388.42a15.884 15.884 0 01-20.256 3.572c-.656-.388-.085-1.426.572-1.038a14.708 14.708 0 0018.835-3.362c.484-.589 1.33.242.849.828zm31.076 9.593a30.615 30.615 0 00-9.853-20.017c-.564-.515.264-1.362.827-.849a31.844 31.844 0 0110.21 20.851c.063.762-1.122.772-1.184.015zm-55.217-34.255a8.991 8.991 0 003.346-7.848c-.072-.76 1.114-.77 1.185-.015a10.075 10.075 0 01-3.683 8.69.612.612 0 01-.838.01.595.595 0 01-.01-.837z" fill="#fff"></path>
    <path d="M240.77 293.266c.059.474.117.947.184 1.425a118.406 118.406 0 003.986 18.79c.135.477.278.959.426 1.431a124.827 124.827 0 0021.468 40.635 121.223 121.223 0 0012.53 13.5c6.233 5.767 13.45 11.523 17.3 18.798a20.798 20.798 0 011.087 2.333l-19.216 39.393c-.088.068-.168.14-.257.208l-.695 1.608c-.248-.2-.5-.411-.749-.61-.144-.115-.284-.239-.428-.354-.095-.079-.19-.159-.28-.225a1.63 1.63 0 01-.085-.075c-.09-.066-.167-.137-.248-.2q-2.124-1.77-4.23-3.576c-.01-.004-.01-.004-.014-.017-10.676-9.203-20.678-19.377-28.817-30.747-.245-.342-.5-.688-.735-1.048a115.673 115.673 0 01-9.61-16.248 102.262 102.262 0 01-4.015-9.536 85.037 85.037 0 01-4.997-26.114c-.568-17.767 4.553-35.519 16.475-48.396.305-.33.606-.65.92-.975z" fill="#f0f0f0"></path>
    <path d="M241.227 293.599a105.87 105.87 0 003.576 65.039 45.591 45.591 0 006.939 12.486 26.149 26.149 0 0011.297 7.858c4.074 1.54 8.419 2.644 12.047 5.148a16.01 16.01 0 016.626 11.293c.76 5.573-.529 11.087-1.977 16.435-1.607 5.938-3.37 12.08-2.189 18.267.143.75-1.028.927-1.171.179-2.055-10.763 4.337-20.725 4.379-31.383.02-4.973-1.46-9.982-5.477-13.176-3.513-2.793-7.993-3.935-12.13-5.459a27.903 27.903 0 01-11.334-7.271 42.148 42.148 0 01-7.393-12.174 102.712 102.712 0 01-7.475-31.22 107.747 107.747 0 013.18-36.459c.195-.735 1.295-.294 1.102.437z" fill="#fff"></path>
    <path d="M241.835 352.103a15.884 15.884 0 01-18.324-9.343c-.29-.705.79-1.19 1.082-.484a14.708 14.708 0 0017.062 8.656c.741-.18.916.993.18 1.171zm19.036 26.37a30.615 30.615 0 004.185-21.915c-.14-.75 1.03-.929 1.171-.18a31.844 31.844 0 01-4.4 22.797c-.41.645-1.362-.06-.956-.702zm-23.464-60.596a8.991 8.991 0 007.397-4.25c.4-.65 1.353.055.955.7a10.075 10.075 0 01-8.172 4.722.612.612 0 01-.676-.496.595.595 0 01.496-.676z" fill="#fff"></path>
    <path d="M886.838 409.814c22.523-14.678 38.9-41.062 35.548-67.736a123.863 123.863 0 01-76.435 37.278c-11.219 1.123-23.814 1.203-31.78 9.181-4.958 4.964-7.064 12.22-7.173 19.234-.108 7.015 1.578 13.919 3.252 20.732l-.412 1.702c26.866-.993 54.477-5.713 77-20.391z" fill="#f0f0f0"></path>
    <path d="M921.822 342.073a105.87 105.87 0 01-42.013 49.777 45.591 45.591 0 01-13.058 5.792 26.149 26.149 0 01-13.752-.528c-4.18-1.222-8.313-2.957-12.717-3.142a16.01 16.01 0 00-12.09 5.027c-3.962 3.993-6.253 9.171-8.317 14.313-2.292 5.708-4.582 11.674-9.25 15.903-.565.512.263 1.36.828.848 8.12-7.357 9.014-19.16 15.398-27.694 2.978-3.982 7.175-7.09 12.306-7.222 4.486-.115 8.75 1.67 12.972 2.944a27.902 27.902 0 0013.427 1.017 42.148 42.148 0 0013.232-5.269 102.713 102.713 0 0024.765-20.426 107.747 107.747 0 0019.411-31.025c.288-.704-.856-1.015-1.142-.315z" fill="#fff"></path>
    <path d="M886.113 388.42a15.884 15.884 0 0020.256 3.572c.656-.388.085-1.426-.572-1.038a14.708 14.708 0 01-18.835-3.362c-.484-.589-1.33.242-.849.828zm-31.076 9.593a30.615 30.615 0 019.853-20.017c.564-.515-.264-1.362-.827-.849a31.844 31.844 0 00-10.21 20.851c-.063.762 1.122.772 1.184.015zm55.217-34.255a8.991 8.991 0 01-3.346-7.848c.071-.76-1.114-.77-1.185-.015a10.075 10.075 0 003.683 8.69.612.612 0 00.838.01.595.595 0 00.01-.837z" fill="#fff"></path>
    <path d="M845.558 293.266c-.058.474-.116.947-.184 1.425a118.407 118.407 0 01-3.986 18.79c-.134.477-.277.959-.425 1.431a124.827 124.827 0 01-21.468 40.635 121.225 121.225 0 01-12.53 13.5c-6.233 5.767-13.45 11.523-17.3 18.798a20.796 20.796 0 00-1.087 2.333l19.216 39.393c.088.068.168.14.257.208l.695 1.608c.248-.2.5-.411.749-.61.144-.115.284-.239.428-.354.095-.079.19-.159.28-.225a1.63 1.63 0 00.085-.075c.09-.066.167-.137.248-.2q2.124-1.77 4.23-3.576c.01-.004.01-.004.014-.017 10.676-9.203 20.678-19.377 28.817-30.747.245-.342.5-.688.735-1.048a115.673 115.673 0 009.61-16.248 102.26 102.26 0 004.015-9.536 85.036 85.036 0 004.997-26.114c.568-17.767-4.553-35.519-16.475-48.396-.305-.33-.606-.65-.92-.975z" fill="#f0f0f0"></path>
    <path d="M845.102 293.599a105.87 105.87 0 01-3.576 65.039 45.591 45.591 0 01-6.939 12.486 26.149 26.149 0 01-11.297 7.858c-4.074 1.54-8.419 2.644-12.047 5.148a16.01 16.01 0 00-6.626 11.293c-.76 5.573.529 11.087 1.976 16.435 1.608 5.938 3.371 12.08 2.19 18.267-.143.75 1.028.927 1.171.179 2.055-10.763-4.337-20.725-4.379-31.383-.02-4.973 1.46-9.982 5.477-13.176 3.513-2.793 7.993-3.935 12.13-5.459a27.902 27.902 0 0011.334-7.271 42.148 42.148 0 007.393-12.174 102.712 102.712 0 007.475-31.22 107.747 107.747 0 00-3.18-36.459c-.195-.735-1.295-.294-1.102.437z" fill="#fff"></path>
    <path d="M844.494 352.103a15.884 15.884 0 0018.324-9.343c.29-.705-.79-1.19-1.082-.484a14.708 14.708 0 01-17.062 8.656c-.741-.18-.916.993-.18 1.171zm-19.036 26.37a30.615 30.615 0 01-4.185-21.915c.14-.75-1.03-.929-1.171-.18a31.844 31.844 0 004.4 22.797c.41.645 1.362-.06.956-.702zm23.464-60.596a8.991 8.991 0 01-7.397-4.25c-.4-.65-1.353.055-.955.7a10.075 10.075 0 008.172 4.722.612.612 0 00.675-.496.595.595 0 00-.495-.676z" fill="#fff"></path>
    <path d="M243.852 280.375a6.803 6.803 0 01-1.614-10.306l-11.981-21 12.537.81 9.455 19.818a6.84 6.84 0 01-8.397 10.678zm-92.229 143.153h8.295l3.946-31.993-12.242.001.001 31.992z" fill="#ffb6b6"></path>
    <path d="M149.508 420.82h16.335a10.41 10.41 0 0110.41 10.41v.338h-26.745z" fill="#2f2e41"></path>
    <path fill="#ffb6b6" d="M208.454 423.528h8.294l3.946-31.993-12.242.001.002 31.992z"></path>
    <path d="M206.338 420.82h16.335a10.41 10.41 0 0110.41 10.41v.338h-26.745zm23.444-170.848s2.281 32.489-2.212 48.851-5.296 115.312-5.296 115.312h-15.06l-13.055-134.691-30.094 135.166-14.346-.987 7.868-159.275z" fill="#2f2e41"></path>
    <path d="M163.81 140.454l11.514-8.402 19.294 4.2 5.222 12.41 9 4.462a20.399 20.399 0 0111.126 15.352l12.857 88.78-75.236-2.908-9.109-104.556a8.197 8.197 0 017.69-8.894z" fill="#3f3d56"></path>
    <path fill="#3f3d56" d="M213.6 160.059l6.949 9.367 30.266 92.312-14.187 5.68-22.717-43.015-.311-64.344z"></path>
    <circle cx="188.411" cy="110.861" r="16.804" fill="#ffb9b9"></circle>
    <path opacity=".1" d="M151.778 179.997l27.422 38.14 30.652 19.988-58.074-58.128z"></path>
    <path d="M179.506 123.01c-1.17-2.335-2.372-4.875-1.925-7.446s3.398-4.813 5.675-3.538c.945-3.415 5.128-4.91 8.65-4.515s6.763 2.093 10.23 2.822 7.68.15 9.553-2.857l-4.484-.077 4.67-5.416-5.413-.405c1.875-2.023 1.377-5.461-.438-7.538s-4.57-3.06-7.257-3.682a40.428 40.428 0 00-16.343-.376 21.245 21.245 0 00-7.26 2.527 14.445 14.445 0 00-5.076 5.264 17.377 17.377 0 00-2.063 7.92 22.145 22.145 0 009.758 18.836" fill="#2f2e41"></path>
    <path d="M805.173 432H283.684a20.28 20.28 0 01-20.256-20.256V20.256A20.28 20.28 0 01283.684 0h521.489a20.279 20.279 0 0120.256 20.256v391.488A20.279 20.279 0 01805.173 432z" fill="#e4e4e4"></path>
    <path d="M673.924 179.75h-80.5a15 15 0 010-30h80.5a15 15 0 010 30zm-70.5 41h-19a5.5 5.5 0 010-11h19a5.5 5.5 0 010 11zm79 0h-19a5.5 5.5 0 010-11h19a5.5 5.5 0 010 11zm-40 0h-19a5.5 5.5 0 010-11h19a5.5 5.5 0 010 11zm-39 21h-19a5.5 5.5 0 010-11h19a5.5 5.5 0 010 11zm79 0h-19a5.5 5.5 0 010-11h19a5.5 5.5 0 010 11zm-40 0h-19a5.5 5.5 0 010-11h19a5.5 5.5 0 010 11zm-39 21h-19a5.5 5.5 0 010-11h19a5.5 5.5 0 010 11zm79 0h-19a5.5 5.5 0 010-11h19a5.5 5.5 0 010 11zm-40 0h-19a5.5 5.5 0 010-11h19a5.5 5.5 0 010 11zm-39 21h-19a5.5 5.5 0 010-11h19a5.5 5.5 0 110 11zm79 0h-19a5.5 5.5 0 010-11h19a5.5 5.5 0 110 11zm-40 0h-19a5.5 5.5 0 010-11h19a5.5 5.5 0 110 11z" fill="#fff"></path>
    <circle cx="474.924" cy="210.75" r="51" fill="#cacaca"></circle>
    <path d="M474.924 273.25a15.017 15.017 0 01-15-15v-95a15 15 0 1130 0v95a15.017 15.017 0 01-15 15z" fill="#fff"></path>
    <path d="M608.16 173.309h-14a2 2 0 010-4h14a2 2 0 110 4zm22 .5h-14a2 2 0 010-4h14a2 2 0 110 4zm22 .5h-14a2 2 0 010-4h14a2 2 0 110 4zm22 .5h-14a2 2 0 010-4h14a2 2 0 110 4z" fill="#e4e4e4"></path>
    <path d="M329.924 370.249a18.693 18.693 0 005.56 13.31h-8.26a18.56 18.56 0 01-18.56-18.56V64.119a18.56 18.56 0 0118.56-18.56h12.02a18.744 18.744 0 00-9.32 16.2zm609.561 63.713H1.19a1.19 1.19 0 010-2.381h938.294a1.19 1.19 0 010 2.381z" fill="#cacaca"></path>
    <path d="M327.924 133.479q-9.48-2.655-19.03-4.92a543.559 543.559 0 00-66.09-11.52 14.785 14.785 0 00-18.03 10.41l-11.11 41a14.777 14.777 0 0010.39 18.11l.15.03a530.033 530.033 0 0148.25 7.76q7.096 1.47 14.15 3.14c2.06.48 4.11.98 6.17 1.49q8.31 2.07 16.63 4.41 9.256 2.61 18.52 5.57c.67.2 1.34.41 2 .63v-75.54c-.66-.2-1.33-.39-2-.57z" fill="#fff"></path>
    <path d="M327.924 133.479q-9.48-2.655-19.03-4.92a543.559 543.559 0 00-66.09-11.52 14.785 14.785 0 00-18.03 10.41l-11.11 41a14.777 14.777 0 0010.39 18.11l.15.03a530.033 530.033 0 0148.25 7.76q7.096 1.47 14.15 3.14c2.06.48 4.11.98 6.17 1.49q8.31 2.07 16.63 4.41 9.256 2.61 18.52 5.57c.67.2 1.34.41 2 .63v-2.11c-.67-.21-1.34-.42-2-.63q-8.52-2.715-17.02-5.11-3.18-.915-6.36-1.77-5.73-1.545-11.43-2.96-3.03-.765-6.05-1.47c-.15-.04-.31-.07-.46-.11q-5.145-1.215-10.31-2.32c-1.32-.28-2.64-.56-3.96-.83-15.92-3.3-31.96-5.87-47.83-7.67a12.777 12.777 0 01-8.91-15.63l11.11-41.01a12.767 12.767 0 0115.65-8.97l.15.02a541.782 541.782 0 0165.26 11.32c.22.06.44.11.66.16q9.78 2.34 19.5 5.06c.66.18 1.33.37 2 .57v-2.08c-.66-.2-1.33-.39-2-.57z" fill="#00ff08"></path>
    <path d="M329.924 135.089v73.44c-.67-.22-1.33-.43-2-.64q-8.864-2.835-17.79-5.34-8.565-2.43-17.19-4.57c-2.04-.5-4.07-.99-6.11-1.47-.08-.36-.16-.72-.23-1.08-.37-1.72-.66-3.46-.88-5.21-.1-.67-.17-1.34-.24-2.02a69.067 69.067 0 0122.28-57.86c.29-.28.59-.55.89-.81q9.69 2.31 19.27 5c.67.17 1.34.36 2 .56zm-66.409 30.07l-27.81-3.28a7.502 7.502 0 10-1.76 14.9l27.81 3.28a7.502 7.502 0 001.76-14.9zm4.58 8.1a5.506 5.506 0 01-6.11 4.81l-27.81-3.28a5.498 5.498 0 011.29-10.92l27.81 3.28a5.52 5.52 0 014.82 6.11z" fill="#00ff08"></path>
    <path d="M329.924 152.289v34.83a16.298 16.298 0 01-2 1.02 20.168 20.168 0 01-21.84-3.54c-.28-.25-.56-.52-.83-.8a15.7 15.7 0 01-.78-.85 20.186 20.186 0 0123.45-31.69 20.895 20.895 0 012 1.03z" fill="#fff"></path>
    <path d="M327.924 177.499q-11.804 2.46-23.45 5.45-4.35 1.11-8.67 2.3-5.16 1.425-10.32 2.95-6.584 1.95-13.15 4.08c-1.27.42-2.55.84-3.83 1.26a554.952 554.952 0 00-36.15 13.47 14.787 14.787 0 00-10.79 17.81l10.03 41.28a14.779 14.779 0 0017.83 10.86l.14-.05a533.852 533.852 0 0159.93-20.52q9.12-2.535 18.43-4.78c.67-.16 1.33-.32 2-.47v-74.05c-.67.12-1.33.26-2 .41z" fill="#fff"></path>
    <path d="M327.924 177.499q-11.804 2.46-23.45 5.45-4.35 1.11-8.67 2.3-5.16 1.425-10.32 2.95-6.584 1.95-13.15 4.08c-1.27.42-2.55.84-3.83 1.26a554.952 554.952 0 00-36.15 13.47 14.787 14.787 0 00-10.79 17.81l10.03 41.28a14.779 14.779 0 0017.83 10.86l.14-.05a533.852 533.852 0 0159.93-20.52q9.12-2.535 18.43-4.78c.67-.16 1.33-.32 2-.47v-2.06l-2 .48-1.51.36q-8.82 2.145-17.45 4.54c-.15.04-.31.09-.46.13a533.386 533.386 0 00-59.63 20.45 12.788 12.788 0 01-15.34-9.41l-10.02-41.28a12.772 12.772 0 019.38-15.41l.15-.05a539.825 539.825 0 0139.41-14.54c1.28-.42 2.56-.83 3.84-1.24q4.71-1.485 9.43-2.89 4.98-1.485 9.95-2.86l.66-.18q4.86-1.335 9.75-2.58 10.845-2.76 21.84-5.07c.66-.14 1.33-.28 2-.41v-2.03c-.67.12-1.33.26-2 .41z" fill="#00ff08"></path>
    <path d="M329.924 178.099v72.01c-.66.15-1.33.3-2 .46q-9.39 2.28-18.7 4.86-.374-.42-.72-.84a69.12 69.12 0 01-15.73-55.61c.05-.33.11-.67.17-1 .05-.32.11-.65.17-.97a68.508 68.508 0 012.56-9.65c.13-.38.26-.76.4-1.14q4.575-1.26 9.18-2.42 11.266-2.91 22.67-5.29c.66-.15 1.33-.28 2-.41zm-46.47 65.23a7.51 7.51 0 00-9.77-4.13l-25.95 10.52a7.5 7.5 0 005.64 13.9l25.95-10.52a7.517 7.517 0 004.13-9.77zm-4.88 7.91l-25.95 10.53a5.504 5.504 0 01-4.14-10.2l25.95-10.52a5.5 5.5 0 114.14 10.19z" fill="#00ff08"></path>
    <path d="M329.924 196.489v39.21a19.61 19.61 0 01-2 .4 20.205 20.205 0 01-18.52-32.71c.23-.29.47-.57.73-.84.24-.28.5-.55.77-.81a20.197 20.197 0 0117.02-5.64 17.2 17.2 0 012 .39z" fill="#fff"></path>
    <path d="M327.924 128.269v99.81c.67-.22 1.34-.43 2-.63v-98.27c-.67-.31-1.33-.61-2-.91zm0 0v99.81c.67-.22 1.34-.43 2-.63v-98.27c-.67-.31-1.33-.61-2-.91zm0 0v99.81c.67-.22 1.34-.43 2-.63v-98.27c-.67-.31-1.33-.61-2-.91zm0 7.29v115.01c.67-.16 1.34-.31 2-.46v-113.98c-.67-.2-1.34-.39-2-.57zm0 0v115.01c.67-.16 1.34-.31 2-.46v-113.98c-.67-.2-1.34-.39-2-.57zm0 0v115.01c.67-.16 1.34-.31 2-.46v-113.98c-.67-.2-1.34-.39-2-.57zm0 0v115.01c.67-.16 1.34-.31 2-.46v-113.98c-.67-.2-1.34-.39-2-.57zm0 0v116.05c.67-.16 1.33-.32 2-.47v-115.01c-.67-.2-1.34-.39-2-.57zm436.25-94.56h-415.49a20.795 20.795 0 00-20.76 20.76v308.49a20.785 20.785 0 0020.76 20.75h415.49a20.775 20.775 0 0020.75-20.75V61.759a20.777 20.777 0 00-20.75-20.76zm18.75 329.25a18.77 18.77 0 01-18.75 18.75h-415.49a18.778 18.778 0 01-18.76-18.75V61.759a18.788 18.788 0 0118.76-18.76h415.49a18.772 18.772 0 0118.75 18.76zm-455-234.69v114l2-.48v-112.95c-.67-.2-1.34-.39-2-.57zm0 0v115.01c.67-.16 1.34-.31 2-.46v-113.98c-.67-.2-1.34-.39-2-.57zm0 0v115.01c.67-.16 1.34-.31 2-.46v-113.98c-.67-.2-1.34-.39-2-.57zm0 0v115.01c.67-.16 1.34-.31 2-.46v-113.98c-.67-.2-1.34-.39-2-.57zm0-7.29v99.81c.67-.22 1.34-.43 2-.63v-98.27c-.67-.31-1.33-.61-2-.91zm0 0v99.81c.67-.22 1.34-.43 2-.63v-98.27c-.67-.31-1.33-.61-2-.91z" fill="#2f2e41"></path>
    <path d="M238.85 233.874a6.803 6.803 0 00-9.99-3.003l-19.17-14.73-.907 12.53 18.344 12.067a6.84 6.84 0 0011.723-6.864z" fill="#ffb6b6"></path>
    <path d="M161.6 144.976l-6.309-2.98s-10.162 2.858-5.225 16.296l29.879 55.664 36.479 21.357 11.372-10.077-36.505-28.884z" fill="#3f3d56"></path>
  </symbol>
  <symbol xmlns="http://www.w3.org/2000/svg" xmlns:xlink="http://www.w3.org/1999/xlink" viewBox="0 0 1145.57 819.91" id="undraw_security_o890">
    <defs>
      <linearGradient id="a" x1="591.3" y1="646.08" x2="591.3" y2="107.75" gradientUnits="userSpaceOnUse">
        <stop offset="0" stop-color="gray" stop-opacity=".25"></stop>
        <stop offset=".54" stop-color="gray" stop-opacity=".12"></stop>
        <stop offset="1" stop-color="gray" stop-opacity=".1"></stop>
      </linearGradient>
      <linearGradient id="b" x1="944.34" y1="854.67" x2="944.34" y2="289.29" xlink:href="#a"></linearGradient>
    </defs>
    <title>security</title>
    <path d="M1127.43 551.22c-26.57 54.81-80.52 91.46-136.43 115.63-75.27 32.55-158.16 45.46-239.91 40q-21.49-1.43-42.85-4.57a540.44 540.44 0 01-143.27-41.72q-19.74-8.89-38.68-19.41a494.85 494.85 0 01-60.46-39.54q-7.23-5.52-14.26-11.32c-3.25-2.68-6.47-5.42-9.74-8.08-6.9-5.61-14-10.94-21.92-14.93a78.31 78.31 0 00-7.34-3.24c-25.08-9.54-54-5.94-80.11 1.5-19.86 5.66-39.22 13.41-59.06 18.94a196 196 0 01-26.91 5.72 143.21 143.21 0 01-60.46-5.31l-1.67-.52q-4.2-1.32-8.33-2.89l-1.67-.64q-4-1.54-7.83-3.31l-1.67-.76q-4-1.86-7.83-3.93c-.92-.48-1.83-1-2.73-1.49a163.67 163.67 0 01-39.16-30.49c-.33-.33-.64-.67-1-1-1.59-1.72-3.15-3.47-4.66-5.26-.56-.66-1.12-1.32-1.67-2q-2.69-3.28-5.19-6.71c-.25-.33-.49-.67-.73-1a144.59 144.59 0 01-16.86-30.49c-.14-.33-.27-.67-.39-1q-2-5.15-3.65-10.47c-.45-1.48-.88-3-1.26-4.48-.13-.44-.25-.89-.36-1.33-5.52-21.73-6.15-44.32-6.15-66.78v-7.85c.16-36.33.72-73.28 6.08-109.11 0-.25.07-.5.11-.74a340.76 340.76 0 017.31-35.82 264.25 264.25 0 0112.31-36.3c12.33-29 30.26-55.39 50.17-79.85C199.35 79.12 265.12 27.45 342.1 8.11c82.95-20.83 175.14-.87 242.05 52.4 20.4 16.24 38.73 35.47 61.64 47.92 20 10.84 43.41 15.33 64.83 6.8 17.7-7.05 29.22-10.55 49.1-9.48a411.56 411.56 0 01120.36 25.21c1.56.57 3.12 1.16 4.67 1.75 100.71 38.53 187.28 115.08 232.28 213.45q1.79 3.9 3.47 7.86c26.83 62.67 36.53 136.12 6.93 197.2z" fill="#00ff08" opacity=".1"></path>
    <ellipse cx="120.3" cy="728.81" rx="88.28" ry="14.18" fill="#00ff08" opacity=".1"></ellipse>
    <ellipse cx="912.26" cy="804.71" rx="156.53" ry="15.2" fill="#00ff08" opacity=".1"></ellipse>
    <rect x="116.14" y="107.75" width="950.33" height="538.33" rx="12.49" ry="12.49" fill="url(#a)"></rect>
    <rect x="117.65" y="115.32" width="947.42" height="528.97" rx="12.49" ry="12.49" fill="#fff"></rect>
    <rect x="117.65" y="115.32" width="947.42" height="528.97" rx="12.49" ry="12.49" fill="#fff"></rect>
    <rect x="117.65" y="115.32" width="947.42" height="528.97" rx="12.49" ry="12.49" fill="#fff" opacity=".04"></rect>
    <path d="M1060.26 109.25h-937.8a4.81 4.81 0 00-4.81 4.81v20.33h947.38v-20.33a4.81 4.81 0 00-4.77-4.81z" fill="#5a5773"></path>
    <g fill="#fff">
      <circle cx="136.57" cy="121.82" r="6.5"></circle>
      <circle cx="154.07" cy="121.82" r="6.5"></circle>
      <circle cx="171.57" cy="121.82" r="6.5"></circle>
    </g>
    <path fill="#00ff08" opacity=".2" d="M195.68 181.67h254.25v21.58H195.68z"></path>
    <path fill="#5a5773" opacity=".1" d="M195.68 268.2h791.36v331.96H195.68z"></path>
    <path d="M659.03 289.85h-13.55v-26.32c0-29.7-23.68-54.39-53.38-54.84a54.28 54.28 0 00-54.85 54.11v27.05h-13.52a22.62 22.62 0 00-22.55 22.55v108.22a22.62 22.62 0 0022.55 22.55h135.3a22.61 22.61 0 0022.54-22.55V312.4a22.61 22.61 0 00-22.54-22.55zm-59.75 70.35v38.76a8.09 8.09 0 01-7.5 8.12 7.91 7.91 0 01-8.28-7.9v-39a18 18 0 1115.78 0zm30.44-70.35h-76.69V262.8a38.33 38.33 0 0176.66 0z" opacity=".1"></path>
    <path d="M659.03 287.85h-13.55v-26.32c0-29.7-23.68-54.39-53.38-54.84a54.28 54.28 0 00-54.85 54.11v27.05h-13.52a22.62 22.62 0 00-22.55 22.55v108.22a22.62 22.62 0 0022.55 22.55h135.3a22.61 22.61 0 0022.54-22.55V310.4a22.61 22.61 0 00-22.54-22.55zm-59.75 70.35v38.76a8.09 8.09 0 01-7.5 8.12 7.91 7.91 0 01-8.28-7.9v-39a18 18 0 1115.78 0zm30.44-70.35h-76.69V260.8a38.33 38.33 0 0176.66 0z" fill="#00ff08"></path>
    <path fill="#5a5773" opacity=".1" d="M906.94 236.25h80.1v18.91h-80.1z"></path>
    <path d="M1041.27 849.33a28.47 28.47 0 00-2.68-7.61l-12-17.92h.07s-1.89-9 0-13.42-6.74-15.29-6.74-15.29-1.05-2.73 1.69-6.09-1.69-13.2-1.69-13.2-2.1-20.55-2.31-23.69-1.9-20.54-1.9-20.54l-4-36.89-7.12-97.77-.13-1.83c.88-.43 1.35-.7 1.35-.7l-1.42-54.06 1.23-1.11c10.74-9.72 35.51-32.22 35.26-32.71s-3-37.57-3.32-46.85a55.83 55.83 0 00-4.26-19.18c-.62-1.23-2.41-9.34-3.15-12.77-.2-.94-.33-1.53-.33-1.53s-7.26-13.84-6.63-20.13 1.89-11-13.59-13.2c0 0-13-1.94-20.74-7.23a59 59 0 00-14.86-7.44s-4.34-8-7.36-5.29a42 42 0 01-2.85-8.91l-.09-.56a29.47 29.47 0 0011.64-16.66c.1-.38.18-.77.27-1.15a3.25 3.25 0 00.93.17c2.63 0 4.25-2.93 6.71-3.86 1-.39 2.23-.45 3-1.24a2.93 2.93 0 00.66-2.21 4.51 4.51 0 000-.82 2.93 2.93 0 000-.29v.1c-.67-3.64-3.49-6.87-3.18-10.57.3-3.48 3.36-6.54 3.11-9.93a5.4 5.4 0 00-.07-.8v.12a8.56 8.56 0 00-2-3.54 11.36 11.36 0 00-4.12-3.46c-1.39-.61-3-.75-4.3-1.48-3.82-2.08-3.81-7.5-6.08-11.2A9.91 9.91 0 00961 292c-2.84.28-5.41 1.79-8.22 2.28-3.84.68-7.75-.57-11.39-2s-7.33-3-11.24-3-8.14 2-9.32 5.69c-.63 2-.32 4.15-.8 6.18-.86 3.58-4 6.14-7.25 7.92-2 1.11-4.38 2.38-5 4.48v-.16a3.84 3.84 0 00-.1.51 3.75 3.75 0 000 .67c0 1.44.76 2.81 1.27 4.18a11.53 11.53 0 01-.06 8.06c-.74 1.9-2 3.57-2.72 5.46a10.75 10.75 0 00-.66 2.74v-.16a11 11 0 000 1.28 9 9 0 001 4.2 7.54 7.54 0 004.49 3.77c2 .46 3.25-1.5 5.36-1a8.42 8.42 0 011.11.35c.07.45.14.9.22 1.34a29.39 29.39 0 0010.14 17.17c0 .24.08.48.11.73a67.15 67.15 0 01.83 12.06s-3.15-4.61-7.47 4.29c0 0-11.27 6.5-15.16 7.24s-17.7 5.55-17.7 5.55a12.18 12.18 0 01-7.16 2.31c-4.31 0-7.89 9.43-7.37 14.56s-.31 8.91-4.32 9.12-1.82 8.34-1.79 8.48l-.37 1.75c-.78 3.58-2.48 11.26-3.08 12.46a56 56 0 00-4.27 19.18c-.31 9.28-3 46.22-3.31 46.85-.21.41 16.76 15.92 28.69 26.76l1.73 1.56-5.49 51.28a13.69 13.69 0 005.64 10c0 .6 0 1.21-.06 1.84-.24 6-.72 13.26-1.68 15.16-1.68 3.36-1.26 21.38-1.26 21.38s-1.69 36.68-3.79 40.67-2.53 12.36-1.9 14-2.11 45.69-2.11 45.69l-2.1 19.71s.63 18.86-1.27 19.28-2.95 13.42-2.95 13.42-6.73 9.22-3.79 12.57-.43 4.83-.74 5.66-6.42 4-2 15.72a3.45 3.45 0 00.14.34c-4.14 5.75-17.26 24.3-16.46 27.12a7.43 7.43 0 003.5 4.2c3.09 1.85 8.39 2.71 16.82 0 14-4.51 13-7.76 13-7.76a5.94 5.94 0 015.9-5.66c5.79-.42 10.11-5.76 10.11-5.76l-.68-2.53-.93-3.5c.11-1 .82-2.75 4-3.72 4.85-1.47 3.58-10.69 3.58-10.69s-.42-9.64 1.68-10.9 1.27-17.19 1.27-17.19 2.32-11.53 5.68-19.29 7.38-53.86 7.38-53.86 2.73-22.64 5.26-29.14 4.85-24.73 4.85-24.73 15.59-30.19 15.79-36.9c0 0 2-6.29 4 .63s7.62 23.48 7.62 23.48l5.47 20.33 6.53 30.39 4.22 25.58s-.64 9.64 1 13 4 11.1 2.74 12.57 2.52 8.39 3.58 9.85 0 32.49 0 32.49 4.84 26.41 11.79 31a8.5 8.5 0 001.54.8c-.1 2.86-.2 6.69-.07 8.69a3.33 3.33 0 00.22 1.31c.63.84 7.79 6.5 9.27 6.5s6.73 3.67 6.95 5.45 15.39 9.32 17.54 9.54 12.57 2.09 14-.84a4.85 4.85 0 00.29-2.71zM1004 471.61l1.08.93s1.11 8.65 1.9 11.24-.16 7.63-.16 7.63a17.55 17.55 0 001.11 5.5c.94 1.89-1.9 6-1.9 6h-2.53l-.79-32.38zm-75.23-96.68v-.19c-.02.06-.03.13-.03.19zm-38.85 124.65a3.65 3.65 0 01-.16-2.67 8 8 0 00.53-1.48 22.92 22.92 0 00.58-4 .28.28 0 000-.05c-.09-.48-.9-5.12-.15-7.58s1.89-11.24 1.89-11.24l.72-.61 1.67-1.45s0-.54.12-1.43c.35 7.6.63 16 .18 16.42-.84.83-3.9 9-3.16 9.32.24.11-.09 3.38-.65 7.78a15.94 15.94 0 01-1.57-3.01z" transform="translate(-26.97 -40.04)" fill="url(#b)"></path>
    <path d="M943.55 342.88v12.44l-25.52 12.83s-25.34-15.33-19.09-21.43c4-3.86 3.23-14.46 2.15-21.75-.63-4.24-1.36-7.35-1.36-7.35s45.52-13 38.64-3.13c-2.3 3.3-2.48 7.57-1.71 11.8 1.56 8.39 6.89 16.59 6.89 16.59z" fill="#c37098"></path>
    <path d="M873.64 464.53l-3.29 40.52s-4.93-4.47-11.31-10.29c-11.83-10.79-28.63-26.22-28.43-26.63.31-.63 3-37.39 3.29-46.63a55.8 55.8 0 014.22-19.08c.6-1.2 2.29-8.84 3-12.41.24-1.11.39-1.83.39-1.83l5.52-2.22s23 25.66 23 26.13-1.57 20.18-1.57 20.18l-1.63 1.42-.71.61s-1.1 8.61-1.88 11.19.06 7.06.15 7.54a23.25 23.25 0 01-.57 4 8.38 8.38 0 01-.53 1.47 3.67 3.67 0 00.16 2.66 16.08 16.08 0 001.72 3.29zm139.39 3.6c.24.49-24.29 22.88-34.92 32.55l-4.82 4.37-3.26-40.52h8.45s2.82-4.07 1.88-5.95a17.39 17.39 0 01-1.09-5.47s.93-5 .15-7.59-1.88-11.19-1.88-11.19l-1.07-.92-1.27-1.11s-1.57-19.71-1.57-20.18 23-26.13 23-26.13l5.48 2.19s.12.59.32 1.53c.74 3.41 2.51 11.48 3.12 12.71a55.8 55.8 0 014.22 19.08c.26 9.24 2.94 46 3.26 46.63zm.1 343.94c-1.47 2.92-11.79 1-13.92.84s-17.17-7.73-17.38-9.5-5.42-5.42-6.88-5.42-8.55-5.64-9.18-6.47a3.19 3.19 0 01-.21-1.3c-.22-3.43.21-12.26.21-12.26l30.25 1.67 14.7 22.11a28.52 28.52 0 012.66 7.57 5 5 0 01-.25 2.76z" fill="#3f3d56"></path>
    <path d="M1013.13 812.07c-1.47 2.92-11.79 1-13.92.84s-17.17-7.73-17.38-9.5-5.42-5.42-6.88-5.42-8.55-5.64-9.18-6.47a3.19 3.19 0 01-.21-1.3c-.22-3.43.21-12.26.21-12.26l30.25 1.67 14.7 22.11a28.52 28.52 0 012.66 7.57 5 5 0 01-.25 2.76z" opacity=".1"></path>
    <path d="M1013.13 812.07c-1.47 2.92-11.79 1-13.92.84s-17.17-7.73-17.38-9.5-5.42-5.42-6.88-5.42-8.55-5.64-9.18-6.47a3.19 3.19 0 01-.21-1.3l9.8 6.2s6.26 4 7.93 6.37 14.83 7.3 15.92 7.4c.81.08 9.45-1.58 14.17-.88a5 5 0 01-.25 2.76z" opacity=".1"></path>
    <path d="M870.13 793.82s-4.28 5.32-10 5.73a5.89 5.89 0 00-5.84 5.63s1 3.24-12.83 7.73c-8.35 2.69-13.6 1.84-16.66 0a7.44 7.44 0 01-3.47-4.18c-.94-3.33 17.52-28.68 17.52-28.68l16.8-1 12 5.42 1.84 6.87z" fill="#3f3d56"></path>
    <path d="M870.13 793.82s-4.28 5.32-10 5.73a5.89 5.89 0 00-5.84 5.63s1 3.24-12.83 7.73c-8.35 2.69-13.6 1.84-16.66 0a7.44 7.44 0 01-3.47-4.18c-.94-3.33 17.52-28.68 17.52-28.68l16.8-1 12 5.42 1.84 6.87z" opacity=".1"></path>
    <path d="M870.13 793.82s-4.28 5.32-10 5.73a5.89 5.89 0 00-5.84 5.63s1 3.24-12.83 7.73c-8.35 2.69-13.6 1.84-16.66 0 7.87-.82 25.26-5.79 27-7.51 2.09-2.09 4.7-7.83 6.47-7.93 1.23-.08 7.48-3.84 11.23-6.17z" fill="none"></path>
    <path d="M870.13 793.82s-4.28 5.32-10 5.73a5.89 5.89 0 00-5.84 5.63s1 3.24-12.83 7.73c-8.35 2.69-13.6 1.84-16.66 0 7.87-.82 25.26-5.79 27-7.51 2.09-2.09 4.7-7.83 6.47-7.93 1.23-.08 7.48-3.84 11.23-6.17z" opacity=".1"></path>
    <path d="M998.94 770.56c-1.88 4.38 0 13.35 0 13.35s-28 1.46-34.84-3.13-11.68-30.88-11.68-30.88 1-30.87 0-32.33-4.8-8.34-3.55-9.8-1-9.18-2.71-12.52-1-12.93-1-12.93l-4.18-25.46-6.46-30.24-5.49-20.24s-5.63-16.48-7.54-23.36-3.93-.63-3.93-.63c-.2 6.68-15.64 36.72-15.64 36.72s-2.3 18.15-4.8 24.61-5.22 29-5.22 29-4 45.89-7.3 53.61-5.57 19.19-5.57 19.19.84 15.86-1.25 17.11-1.75 10.85-1.75 10.85 1.25 9.17-3.55 10.64-4 4.59-4 4.59-26.7 4.38-31.08-7.31 1.67-14.8 2-15.64 3.66-2.29.74-5.64 3.75-12.51 3.75-12.51 1.05-12.93 2.92-13.35 1.26-19.19 1.26-19.19l2.08-19.61s2.72-43.81 2.09-45.48-.21-10 1.88-14 3.75-40.48 3.75-40.48-.42-17.93 1.25-21.27c1-1.89 1.42-9.16 1.66-15.09.18-4.53.22-8.28.22-8.28l23.36-8.76 30-9.59 25.24 12.1 36.93 7.09.46 6.37 7.05 97.31 4 36.71s1.67 17.31 1.88 20.44 2.29 23.58 2.29 23.58 4.38 9.8 1.67 13.14-1.67 6-1.67 6 8.61 10.93 6.73 15.31z" fill="#3f3d56"></path>
    <path d="M938.39 314.49c-2.3 3.3-2.48 7.57-1.71 11.8a29.34 29.34 0 01-35.57-1.33c-.63-4.24-1.36-7.35-1.36-7.35s45.52-12.98 38.64-3.12z" opacity=".1"></path>
    <path d="M949.03 301.73a29.3 29.3 0 11-29.3-29.3 29.16 29.16 0 0129.3 29.3z" fill="#c37098"></path>
    <path opacity=".1" d="M955.13 350.42l-9.6 170.95-52.15-10.95-10.33-68.53 10.23-92 7.7.99 13.58 1.73 13.45.83 14.58-1.62 12.54-1.4z"></path>
    <path fill="#00ff08" d="M955.13 351.67l-9.6 170.95-52.15-10.95-10.33-68.53 10.23-91.99 7.7.98 13.58 1.73 13.45.83 14.58-1.62 12.54-1.4z"></path>
    <path d="M912.26 356.26l18.78.63-5.28 7.39s.37 14.93 2.88 19.21 1.77 70.4 1.77 70.4l-5 9.49-8.55-10.64.11-87.3z" fill="#3f3d56"></path>
    <path d="M912.26 356.26l18.78.63-5.28 7.39s.37 14.93 2.88 19.21 1.77 70.4 1.77 70.4l-5 9.49-8.55-10.64.11-87.3z" opacity=".1"></path>
    <path opacity=".1" d="M941.67 336.86l-17.52 19.4 10.01 10.43 16.59-16.17-9.08-13.66z"></path>
    <path fill="#00ff08" d="M941.67 335.61l-17.52 19.4 10.01 10.43 16.59-16.17-9.08-13.66z"></path>
    <path opacity=".1" d="M916.75 355.32l-17.74-17.73-1.67 9.28 8.14 20.34 11.27-11.89z"></path>
    <path fill="#00ff08" d="M917.37 354.07l-17.73-17.73-1.67 9.28 8.14 20.34 11.26-11.89z"></path>
    <path d="M977.08 558.1a86.57 86.57 0 01-27 7.81c-17.21 2.19-28.47-19.71-28.47-19.71l-6.57 8.55c-2.09 9.08-33.9 11.37-46.83 7.93a20.69 20.69 0 01-7.42-3.51c.18-4.53.22-8.28.22-8.28l23.36-8.76 30-9.59 25.24 12.1 36.93 7.09zm-21.95-206.42l-9.59 170.94-52.16-10.95-10.35-68.52 10.22-92 7.7 1a93.48 93.48 0 01-1.13 10c-1.25 5.85 6.47 47.36 6.47 47.36s14.67 46.55 21.27 39.84 16-42.14 16-42.14c6.37-13.14.11-50-.36-50.74a14.88 14.88 0 01-.6-3.35zm22.53 132.28l.44 16.75-4.82 4.37-3.25-40.55h7.2zm-113.26-30.9a23.25 23.25 0 01-.57 4c0-.37 0-.58-.08-.61-.3-.08.06-1.61.65-3.39zm9.24 11.47l-3.29 40.52s-4.93-4.47-11.31-10.29l.76-7.18s2.69-17.64 3.67-26.34a16.08 16.08 0 001.72 3.29z" opacity=".1"></path>
    <path d="M901.93 336.96s-3.12-4.59-7.4 4.27c0 0-11.16 6.47-15 7.2s-17.5 5.53-17.5 5.53a12.08 12.08 0 01-7.09 2.29c-4.28 0-7.83 9.39-7.31 14.5s-.31 8.87-4.27 9.08-1.78 8.44-1.78 8.44l26.39 30.25s1.67 27.85.84 28.69-3.86 9-3.13 9.28-4 31.08-4 31.08l-6.36 59.77s0 10 12.94 13.45 44.77 1.17 46.82-7.91l6.57-8.56s11.26 21.91 28.47 19.72 28.17-8.45 28.17-8.45l-1.88-71.63-1.25-51.63 26.87-44.15s-7.2-13.77-6.57-20 1.87-10.95-13.46-13.14c0 0-12.93-1.93-20.55-7.2a58.74 58.74 0 00-14.7-7.4s-4.3-8-7.29-5.26c0 0 3 11.31 2.75 13s.47 9.33.94 10.12 6.73 37.6.36 50.74c0 0-9.35 35.43-16 42.14s-21.27-39.84-21.27-39.84-7.72-41.52-6.47-47.36 2.16-27.02 2.16-27.02z" fill="#3f3d56"></path>
    <circle cx="924.25" cy="469.12" r="4.59" fill="#3f3d56"></circle>
    <circle cx="924.25" cy="490.76" r="4.59" fill="#3f3d56"></circle>
    <circle cx="924.25" cy="469.12" r="4.59" opacity=".1"></circle>
    <circle cx="924.25" cy="490.76" r="4.59" opacity=".1"></circle>
    <path d="M965.5 764.3s18.84 1.46 20.71 2.92-20.71-2.92-20.71-2.92zm-112.17-14.81s4 5 2.3 7.3-2.3-7.3-2.3-7.3zm4.8 18.03s7.3-4.8 10.22-1.61-10.22 1.61-10.22 1.61z" stroke="#00ff08" stroke-miterlimit="10" opacity=".1"></path>
    <path d="M949.03 301.73a29.16 29.16 0 01-.94 7.41 3.33 3.33 0 01-1.94-3.26c.13-1.19.92-2.28.75-3.46-.25-1.82-2.45-2.56-3.61-4-1.43-1.74-1.12-4.27-1-6.52s-.45-5-2.56-5.77c-.63-.23-1.32-.25-1.93-.51-1.66-.7-2.17-2.76-3.28-4.18-2.22-2.86-6.63-2.8-10-1.44a47.53 47.53 0 01-4.5 1.88 5.88 5.88 0 01-4.71-.35c-.66-.42-1.19-1-1.87-1.42-2.26-1.36-5.22 0-7.18 1.75s-3.53 4.1-6 5.17c-1.11.5-2.48.8-3 1.88a3.94 3.94 0 00-.32 1.87c0 3.89.46 7.84-.35 11.65-.52 2.45-2.24 5.23-4.73 4.93a4.67 4.67 0 01-.91-.23 29.3 29.3 0 1158.1-5.42z" opacity=".1"></path>
    <path d="M889.64 305.47c.75.17 1.46.56 2.23.66 2.49.3 4.21-2.48 4.73-4.93.81-3.81.39-7.76.36-11.65a3.81 3.81 0 01.31-1.87c.57-1.08 1.94-1.38 3-1.88 2.42-1.08 4-3.38 6-5.17s4.91-3.11 7.17-1.75c.67.4 1.21 1 1.87 1.42a6 6 0 004.72.35c1.55-.46 3-1.27 4.49-1.88 3.34-1.36 7.76-1.41 10 1.43 1.11 1.43 1.62 3.48 3.28 4.18.61.26 1.3.29 1.93.52 2.11.79 2.65 3.52 2.56 5.77s-.39 4.78 1 6.52c1.16 1.42 3.36 2.16 3.61 4 .16 1.18-.62 2.28-.75 3.46a3.32 3.32 0 003.13 3.54c2.6 0 4.21-2.91 6.64-3.84 1-.39 2.21-.45 3-1.24a3.31 3.31 0 00.62-2.71c-.49-3.83-3.56-7.16-3.23-11 .31-3.68 3.72-6.89 3-10.51a8.52 8.52 0 00-2-3.57 11.56 11.56 0 00-4.08-3.45c-1.39-.6-3-.74-4.27-1.47-3.78-2.07-3.77-7.47-6-11.15a9.79 9.79 0 00-9.12-4.54c-2.81.28-5.36 1.77-8.14 2.27-3.81.68-7.67-.57-11.28-2s-7.26-3-11.13-3-8.06 2-9.24 5.66c-.62 2-.31 4.14-.79 6.15-.84 3.57-4 6.11-7.18 7.88-2.19 1.22-4.82 2.62-5.08 5.11-.17 1.58.7 3 1.25 4.53a11.53 11.53 0 01-.06 8c-.73 1.89-1.95 3.55-2.69 5.43a9.75 9.75 0 00.26 8 7.46 7.46 0 004.57 3.75c1.97.47 3.21-1.48 5.31-1.02z" fill="#3f3d56"></path>
    <path d="M896.6 299.02c-.52 2.45-2.25 5.23-4.74 4.93-.77-.1-1.47-.49-2.23-.66-2.09-.46-3.33 1.5-5.3 1a7.48 7.48 0 01-4.58-3.75 8.66 8.66 0 01-.93-3.27 9.13 9.13 0 00.93 5.15 7.48 7.48 0 004.58 3.75c2 .46 3.21-1.5 5.3-1a22.61 22.61 0 002.23.65c2.49.31 4.22-2.47 4.74-4.92a28.89 28.89 0 00.48-6.57 24.63 24.63 0 01-.48 4.69zm-13.7-15.06a11.51 11.51 0 00-.66-4.83 25.53 25.53 0 01-1.15-3.16 4.59 4.59 0 00-.1.51c-.17 1.57.71 3 1.25 4.53a11.47 11.47 0 01.66 2.95zm76.4-5.27c-.47 2.84-2.77 5.51-3 8.5a7.15 7.15 0 000 1.54c.5-3.49 3.59-6.58 3-10.04zm.17 21.1a2.35 2.35 0 01-.57 1.12c-.74.79-2 .85-3 1.24-2.43.93-4 3.87-6.64 3.84a3.35 3.35 0 01-3-2.32 5.18 5.18 0 00-.14.66 3.32 3.32 0 003.13 3.53c2.61 0 4.21-2.91 6.64-3.83 1-.39 2.22-.45 3-1.24a3.31 3.31 0 00.62-2.71c-.01-.12-.03-.2-.04-.29zm-12.54-.83c-.25-1.82-2.45-2.56-3.61-4a5.48 5.48 0 01-1.1-3.28c-.08 1.86-.05 3.76 1.1 5.16s2.9 2 3.46 3.44a3.21 3.21 0 00.15-1.32zm-4.65-10.47c.08-2.25-.46-5-2.57-5.77-.62-.23-1.31-.26-1.92-.51-1.66-.7-2.18-2.76-3.28-4.18-2.23-2.85-6.64-2.8-10-1.44-1.5.61-2.93 1.42-4.49 1.88a5.88 5.88 0 01-4.71-.35c-.66-.42-1.2-1-1.87-1.42-2.27-1.36-5.23 0-7.18 1.75s-3.53 4.09-6 5.17c-1.12.5-2.48.8-3.06 1.88a3.93 3.93 0 00-.31 1.87v1.17a2.84 2.84 0 01.29-1.16c.58-1.08 1.94-1.38 3.06-1.88 2.42-1.08 4-3.38 6-5.17s4.91-3.11 7.18-1.75c.67.4 1.21 1 1.87 1.41a5.84 5.84 0 004.71.35 46.21 46.21 0 004.49-1.87c3.35-1.36 7.76-1.42 10 1.43 1.1 1.42 1.62 3.48 3.28 4.18.61.26 1.3.29 1.92.52 1.71.64 2.39 2.56 2.54 4.46z" opacity=".1"></path>
    <g opacity=".1">
      <path d="M893.03 298.96a7.67 7.67 0 015.78-7.17 24 24 0 0113.48.61c9.49 3.14-1.2 14.44-1.2 14.44s-7.11 7-13.74 2.11a10.39 10.39 0 01-3.87-6 15.3 15.3 0 01-.45-3.99zm52.17 0a7.67 7.67 0 00-5.79-7.17 24 24 0 00-13.47.61c-9.49 3.14 1.2 14.44 1.2 14.44s7.1 7 13.74 2.11a10.39 10.39 0 003.87-6 15.3 15.3 0 00.45-3.99z"></path>
      <path d="M910.5 291.48v.47h17.33v-.56l-17.33.09zm5.53 5.01h.55v-1.59s1.76-1.37 4.68 0v1.42h1v-.93h-.49s.2-1.93-3.06-1.62c0 0-2.62-.25-2.56 1.41h-.6z"></path>
    </g>
    <path d="M893.03 298.31a7.67 7.67 0 015.78-7.17 24.13 24.13 0 0113.48.61c9.49 3.15-1.2 14.44-1.2 14.44s-7.11 7-13.74 2.11a10.33 10.33 0 01-3.87-6 15.21 15.21 0 01-.45-3.99zm52.17 0a7.67 7.67 0 00-5.79-7.17 24.09 24.09 0 00-13.47.61c-9.49 3.15 1.2 14.44 1.2 14.44s7.1 7 13.74 2.11a10.33 10.33 0 003.87-6 15.21 15.21 0 00.45-3.99z" fill="#00ff08"></path>
    <path fill="#00ff08" d="M910.5 290.85v.48h17.33v-.57l-17.33.09zm5.53 5.01h.55v-1.59s1.76-1.36 4.68 0v1.43h1v-.94h-.49s.2-1.92-3.06-1.62c0 0-2.62-.24-2.56 1.41h-.6z"></path>
    <path fill="#535461" d="M117.46 457.19h5.68v127.9h-5.68z"></path>
    <path d="M158.84 584.7l-.36 5.76-.5 8.13-.21 3.39-.5 8.14-.22 3.39-.5 8.13-5.73 92.47a15.66 15.66 0 01-15.63 14.7h-29.78a15.65 15.65 0 01-15.62-14.7l-5.76-92.47-.5-8.13-.21-3.39-.49-8.16-.21-3.39-.5-8.13-.36-5.76a8.11 8.11 0 018.1-8.61h60.89a8.1 8.1 0 018.09 8.63z" fill="#3f3d56"></path>
    <path fill="#9d9cb5" d="M158.48 590.46l-.5 8.13H82.61l-.5-8.13h76.37zm-.71 11.52l-.5 8.14H83.33l-.51-8.14h74.95zm-.72 11.53l-.5 8.13h-72.5l-.51-8.13h73.51z"></path>
    <path d="M73.44 505.13c33.08 23.93 46.86 61.37 46.86 61.37s-39.87-1.37-73-25.3S.44 479.83.44 479.83s39.91 1.37 73 25.3z" fill="#00ff08"></path>
    <path d="M.49 479.83s41.38 23 54.65 42 65.16 44.68 65.16 44.68" fill="none" stroke="#535461" stroke-miterlimit="10" stroke-width="2"></path>
    <path d="M94.79 456.96c18 13 25.51 33.4 25.51 33.4s-21.7-.74-39.71-13.77-25.5-33.4-25.5-33.4 21.7.69 39.7 13.77z" fill="#00ff08"></path>
    <path d="M55.09 443.14s22.52 12.5 29.74 22.85 35.47 24.32 35.47 24.32" fill="none" stroke="#535461" stroke-miterlimit="10" stroke-width="2"></path>
    <path d="M146.47 489.28c-20.69 22.73-25.06 52.43-25.06 52.43s29.16-7.15 49.84-29.88 25.06-52.44 25.06-52.44-29.16 7.15-49.84 29.89z" fill="#00ff08"></path>
    <path d="M196.31 459.39s-26.94 23.3-33.79 39.36-41.11 43-41.11 43" fill="none" stroke="#535461" stroke-miterlimit="10" stroke-width="2"></path>
  </symbol>
</svg>